<?xml version="1.0" encoding="UTF-8" standalone="no"?>
<svg
   xmlns:dc="http://purl.org/dc/elements/1.1/"
   xmlns:cc="http://creativecommons.org/ns#"
   xmlns:rdf="http://www.w3.org/1999/02/22-rdf-syntax-ns#"
   xmlns:svg="http://www.w3.org/2000/svg"
   xmlns="http://www.w3.org/2000/svg"
   xmlns:sodipodi="http://sodipodi.sourceforge.net/DTD/sodipodi-0.dtd"
   xmlns:inkscape="http://www.inkscape.org/namespaces/inkscape"
   version="1.0"
   width="512.000000pt"
   height="512.000000pt"
   viewBox="0 0 512.000000 512.000000"
   preserveAspectRatio="xMidYMid meet"
   id="svg46"
   sodipodi:docname="a340.svg"
   inkscape:version="0.92.4 (5da689c313, 2019-01-14)">
  <metadata
     id="metadata52">
    <rdf:RDF>
      <cc:Work
         rdf:about="">
        <dc:format>image/svg+xml</dc:format>
        <dc:type
           rdf:resource="http://purl.org/dc/dcmitype/StillImage" />
      </cc:Work>
    </rdf:RDF>
  </metadata>
  <defs
     id="defs50" />
  <sodipodi:namedview
     pagecolor="#ffffff"
     bordercolor="#666666"
     borderopacity="1"
     objecttolerance="10"
     gridtolerance="10"
     guidetolerance="10"
     inkscape:pageopacity="0"
     inkscape:pageshadow="2"
     inkscape:window-width="1920"
     inkscape:window-height="1001"
     id="namedview48"
     showgrid="false"
     inkscape:zoom="0.34570313"
     inkscape:cx="341.33333"
     inkscape:cy="341.33333"
     inkscape:window-x="-9"
     inkscape:window-y="-9"
     inkscape:window-maximized="1"
     inkscape:current-layer="svg46" />
  <g
     transform="matrix(-0.1,0,0,0.1,512,0)"
     id="g44"
     style="fill:#000000;stroke:none">
    <path
       d="m 2507,5053 c -58,-88 -78,-129 -116,-236 -73,-207 -74,-216 -80,-894 -6,-591 -7,-612 -26,-638 -11,-15 -92,-73 -180,-129 l -160,-103 -3,88 c -3,81 -5,90 -29,109 -42,33 -149,25 -175,-14 -4,-6 -8,-81 -8,-166 v -155 l -306,-195 c -168,-107 -310,-196 -315,-198 -5,-2 -9,45 -9,111 0,125 -6,141 -56,153 -39,10 -114,-2 -133,-20 -13,-14 -17,-48 -21,-203 L 885,2376 560,2169 235,1962 168,1858 c -55,-85 -67,-110 -67,-146 l -1,-42 60,30 c 62,31 785,320 801,320 5,0 9,-6 9,-14 0,-7 6,-19 14,-25 12,-10 17,-8 25,8 6,11 11,28 11,39 0,14 14,25 53,40 28,11 59,23 68,27 13,5 18,-2 23,-29 8,-43 23,-47 32,-8 12,60 21,68 105,101 46,18 89,35 95,37 6,3 15,-9 20,-26 13,-45 26,-42 39,10 l 11,45 104,41 105,41 10,-34 c 14,-47 28,-43 39,11 l 9,45 89,36 c 48,19 94,35 101,35 7,0 17,-19 23,-42 12,-58 36,-57 50,2 13,53 16,54 194,65 l 118,7 5,-468 c 4,-479 13,-632 57,-989 11,-88 28,-198 37,-243 11,-56 13,-86 6,-90 -118,-75 -569,-392 -579,-407 -17,-27 -44,-131 -44,-173 0,-27 3,-32 18,-28 9,3 46,12 82,21 36,9 181,52 322,96 142,43 261,79 266,79 4,0 13,-28 20,-63 17,-89 30,-130 47,-152 15,-20 15,-20 30,0 17,22 30,63 47,153 7,34 16,62 21,62 4,0 103,-30 220,-66 175,-54 451,-134 464,-134 17,0 -16,167 -41,205 -10,15 -461,332 -579,407 -7,4 -5,34 6,90 9,45 26,155 37,243 44,357 53,510 57,989 l 5,469 106,-7 c 186,-12 189,-12 196,-54 3,-21 11,-44 16,-52 9,-13 12,-12 25,4 8,11 15,29 15,40 0,45 12,46 110,8 l 95,-38 12,-48 c 7,-27 15,-51 18,-54 10,-10 25,21 25,52 0,23 3,27 18,21 9,-4 58,-23 109,-42 85,-33 92,-38 98,-67 4,-17 9,-40 12,-50 5,-19 6,-19 19,-1 8,10 14,27 14,37 0,24 2,24 111,-20 l 94,-38 7,-44 c 4,-23 10,-45 13,-49 9,-8 25,21 25,47 0,28 3,27 75,-2 52,-21 60,-28 70,-62 13,-47 32,-54 46,-16 l 10,29 382,-152 c 210,-83 406,-164 435,-178 l 52,-27 -1,42 c 0,36 -12,61 -67,146 l -67,104 -325,207 -325,207 -6,189 c -3,105 -6,191 -7,192 -1,1 -16,10 -34,19 -40,21 -131,15 -156,-10 -13,-13 -18,-41 -22,-130 l -5,-113 -307,196 -308,196 v 157 157 l -26,20 c -43,34 -150,26 -176,-13 -4,-6 -8,-49 -8,-95 0,-71 -2,-82 -16,-77 -43,16 -317,202 -332,224 -15,24 -18,85 -23,637 -5,577 -7,615 -28,707 -23,104 -70,247 -103,313 -29,58 -108,175 -118,175 -5,0 -29,-30 -53,-67 z"
       id="path42"
       inkscape:connector-curvature="0" />
  </g>
</svg>
