<?xml version="1.0" encoding="UTF-8" standalone="no"?>
<svg
   xmlns:dc="http://purl.org/dc/elements/1.1/"
   xmlns:cc="http://creativecommons.org/ns#"
   xmlns:rdf="http://www.w3.org/1999/02/22-rdf-syntax-ns#"
   xmlns:svg="http://www.w3.org/2000/svg"
   xmlns="http://www.w3.org/2000/svg"
   xmlns:sodipodi="http://sodipodi.sourceforge.net/DTD/sodipodi-0.dtd"
   xmlns:inkscape="http://www.inkscape.org/namespaces/inkscape"
   version="1.0"
   width="512.000000pt"
   height="512.000000pt"
   viewBox="0 0 512.000000 512.000000"
   preserveAspectRatio="xMidYMid meet"
   id="svg192"
   sodipodi:docname="b.svg"
   inkscape:version="0.92.4 (5da689c313, 2019-01-14)">
  <defs
     id="defs196" />
  <sodipodi:namedview
     pagecolor="#ffffff"
     bordercolor="#666666"
     borderopacity="1"
     objecttolerance="10"
     gridtolerance="10"
     guidetolerance="10"
     inkscape:pageopacity="0"
     inkscape:pageshadow="2"
     inkscape:window-width="748"
     inkscape:window-height="480"
     id="namedview194"
     showgrid="false"
     inkscape:zoom="0.34570313"
     inkscape:cx="341.33333"
     inkscape:cy="341.33333"
     inkscape:window-x="0"
     inkscape:window-y="0"
     inkscape:window-maximized="0"
     inkscape:current-layer="svg192" />
  <metadata
     id="metadata186">
Created by potrace 1.15, written by Peter Selinger 2001-2017
<rdf:RDF>
  <cc:Work
     rdf:about="">
    <dc:format>image/svg+xml</dc:format>
    <dc:type
       rdf:resource="http://purl.org/dc/dcmitype/StillImage" />
  </cc:Work>
</rdf:RDF>
</metadata>
  <g
     transform="matrix(-0.1,0,0,0.1,512,0.04805088)"
     id="g190"
     style="fill:#000000;stroke:none">
    <path
       d="m 2498,5101 c -61,-48 -124,-222 -158,-436 -33,-206 -41,-346 -47,-816 l -6,-456 -150,-104 c -83,-57 -155,-105 -159,-107 -4,-2 -8,43 -8,101 0,122 -13,149 -83,168 -51,14 -155,5 -197,-16 l -30,-16 v -192 c 0,-161 3,-196 16,-216 14,-19 14,-25 3,-36 -8,-7 -348,-243 -756,-525 -843,-581 -784,-531 -791,-683 -6,-108 1,-114 86,-75 100,44 522,218 1008,414 l 431,173 311,7 311,7 4,-589 4,-589 31,-175 32,-174 -20,-21 C 2319,734 2169,610 1997,469 l -312,-255 -3,-98 c -2,-88 -1,-98 14,-92 89,34 758,256 761,252 3,-3 19,-62 37,-132 21,-83 38,-131 49,-138 34,-21 50,5 83,138 18,70 34,129 37,132 3,4 672,-218 761,-252 15,-6 16,4 14,92 l -3,98 -312,255 c -172,141 -322,265 -333,276 l -20,21 32,174 31,175 4,589 4,589 311,-7 311,-7 431,-173 c 486,-196 908,-370 1008,-414 85,-39 92,-33 86,75 -7,152 52,102 -791,683 -408,282 -746,516 -751,521 -6,5 -2,24 8,46 14,32 16,66 14,217 -3,178 -3,179 -28,198 -33,24 -140,34 -198,19 -68,-19 -76,-35 -82,-166 l -5,-114 -161,111 -161,112 -6,455 c -3,251 -11,510 -17,576 -24,268 -72,485 -132,598 -39,72 -69,97 -118,97 -22,0 -48,-8 -62,-19 z"
       id="path188"
       inkscape:connector-curvature="0" />
  </g>
</svg>
