<?xml version="1.0" encoding="UTF-8" standalone="no"?>
<svg
   xmlns:dc="http://purl.org/dc/elements/1.1/"
   xmlns:cc="http://creativecommons.org/ns#"
   xmlns:rdf="http://www.w3.org/1999/02/22-rdf-syntax-ns#"
   xmlns:svg="http://www.w3.org/2000/svg"
   xmlns="http://www.w3.org/2000/svg"
   xmlns:sodipodi="http://sodipodi.sourceforge.net/DTD/sodipodi-0.dtd"
   xmlns:inkscape="http://www.inkscape.org/namespaces/inkscape"
   version="1.0"
   width="512.000000pt"
   height="512.000000pt"
   viewBox="0 0 512.000000 512.000000"
   preserveAspectRatio="xMidYMid meet"
   id="svg240"
   sodipodi:docname="d.svg"
   inkscape:version="0.92.4 (5da689c313, 2019-01-14)">
  <defs
     id="defs244" />
  <sodipodi:namedview
     pagecolor="#ffffff"
     bordercolor="#666666"
     borderopacity="1"
     objecttolerance="10"
     gridtolerance="10"
     guidetolerance="10"
     inkscape:pageopacity="0"
     inkscape:pageshadow="2"
     inkscape:window-width="748"
     inkscape:window-height="480"
     id="namedview242"
     showgrid="false"
     inkscape:zoom="0.34570313"
     inkscape:cx="341.33333"
     inkscape:cy="341.33333"
     inkscape:window-x="0"
     inkscape:window-y="0"
     inkscape:window-maximized="0"
     inkscape:current-layer="svg240" />
  <metadata
     id="metadata234">
Created by potrace 1.15, written by Peter Selinger 2001-2017
<rdf:RDF>
  <cc:Work
     rdf:about="">
    <dc:format>image/svg+xml</dc:format>
    <dc:type
       rdf:resource="http://purl.org/dc/dcmitype/StillImage" />
  </cc:Work>
</rdf:RDF>
</metadata>
  <g
     transform="matrix(-0.1,0,0,0.1,512,-0.18452577)"
     id="g238"
     style="fill:#000000;stroke:none">
    <path
       d="m 2508,5083 c -64,-68 -104,-159 -145,-328 -15,-62 -17,-171 -22,-959 l -6,-888 -636,-387 c -350,-212 -646,-393 -657,-401 -19,-13 -25,-36 -42,-145 -11,-71 -20,-133 -20,-137 0,-20 28,-4 53,31 29,38 30,38 470,180 l 442,141 h 198 197 v -351 c 0,-331 -1,-351 -17,-343 -31,13 -120,16 -143,4 -31,-17 -42,-54 -42,-150 0,-68 8,-114 41,-235 22,-82 45,-170 52,-195 l 11,-45 27,31 26,30 71,-34 71,-35 27,-150 c 25,-142 26,-150 9,-163 -10,-7 -142,-100 -294,-206 l -277,-193 -6,-74 c -4,-40 -5,-76 -1,-79 3,-3 141,38 308,90 298,95 302,96 323,77 26,-24 42,-24 68,0 21,19 25,18 323,-77 167,-52 305,-93 308,-90 4,3 3,39 -1,79 l -6,74 -277,193 c -152,106 -284,199 -294,206 -17,13 -16,21 9,163 l 27,150 71,35 71,34 26,-30 27,-31 11,45 c 7,25 30,113 52,195 57,210 57,354 -1,385 -23,12 -112,9 -142,-4 -17,-8 -18,12 -18,343 v 351 h 198 197 l 442,-141 c 440,-142 441,-142 470,-180 25,-35 53,-51 53,-31 0,4 -9,66 -20,137 -17,110 -23,132 -42,145 -12,8 -308,189 -657,401 l -636,387 -6,888 c -5,788 -7,897 -22,959 -26,105 -56,195 -84,245 -32,56 -92,120 -113,120 -9,0 -32,-17 -52,-37 z"
       id="path236"
       inkscape:connector-curvature="0" />
  </g>
</svg>
