<?xml version="1.0" encoding="UTF-8" standalone="no"?>
<svg xmlns:rdf="http://www.w3.org/1999/02/22-rdf-syntax-ns#" xmlns="http://www.w3.org/2000/svg" height="500" width="500" version="1.1" xmlns:cc="http://creativecommons.org/ns#" xmlns:dc="http://purl.org/dc/elements/1.1/">
	<title>FLUG</title>
	<g transform="matrix(0 1 -1 0 500.75 -.75)">
		<polygon points="450 225 320 225 170 10 140 10 200 225 80 225 30 150 10 150 30 240 30 260 10 350 30 350 80 275 200 275 140 490 170 490 320 275 450 275 490 250"/>
		<ellipse d="m 491,250 c 0,13.25483 -22.38576,24 -50,24 -27.61424,0 -50,-10.74517 -50,-24 0,-13.25483 22.38576,-24 50,-24 27.61424,0 50,10.74517 50,24 z" cx="441" rx="50" ry="24" stroke="#000" cy="250"/>
	</g>
</svg>
