<?xml version="1.0" encoding="UTF-8" standalone="no"?>
<svg
   xmlns:dc="http://purl.org/dc/elements/1.1/"
   xmlns:cc="http://creativecommons.org/ns#"
   xmlns:rdf="http://www.w3.org/1999/02/22-rdf-syntax-ns#"
   xmlns:svg="http://www.w3.org/2000/svg"
   xmlns="http://www.w3.org/2000/svg"
   xmlns:sodipodi="http://sodipodi.sourceforge.net/DTD/sodipodi-0.dtd"
   xmlns:inkscape="http://www.inkscape.org/namespaces/inkscape"
   version="1.0"
   width="512.000000pt"
   height="512.000000pt"
   viewBox="0 0 512.000000 512.000000"
   preserveAspectRatio="xMidYMid meet"
   id="svg270"
   sodipodi:docname="l.svg"
   inkscape:version="0.92.4 (5da689c313, 2019-01-14)">
  <defs
     id="defs274" />
  <sodipodi:namedview
     pagecolor="#ffffff"
     bordercolor="#666666"
     borderopacity="1"
     objecttolerance="10"
     gridtolerance="10"
     guidetolerance="10"
     inkscape:pageopacity="0"
     inkscape:pageshadow="2"
     inkscape:window-width="748"
     inkscape:window-height="480"
     id="namedview272"
     showgrid="false"
     inkscape:zoom="0.34570313"
     inkscape:cx="341.33333"
     inkscape:cy="341.33333"
     inkscape:window-x="0"
     inkscape:window-y="0"
     inkscape:window-maximized="0"
     inkscape:current-layer="svg270" />
  <metadata
     id="metadata264">
Created by potrace 1.15, written by Peter Selinger 2001-2017
<rdf:RDF>
  <cc:Work
     rdf:about="">
    <dc:format>image/svg+xml</dc:format>
    <dc:type
       rdf:resource="http://purl.org/dc/dcmitype/StillImage" />
  </cc:Work>
</rdf:RDF>
</metadata>
  <g
     transform="matrix(-0.1,0,0,0.1,512,0)"
     id="g268"
     style="fill:#000000;stroke:none">
    <path
       d="m 2522,5078 c -74,-107 -161,-318 -206,-493 -59,-236 -59,-236 -63,-950 -2,-363 -7,-663 -11,-667 -4,-4 -403,-131 -887,-283 -484,-152 -902,-283 -929,-292 -43,-14 -50,-20 -71,-67 -12,-28 -37,-114 -54,-191 -17,-77 -42,-182 -55,-232 -13,-51 -20,-93 -16,-93 5,0 37,34 72,75 52,62 68,75 93,75 17,0 374,16 795,35 421,19 783,35 806,35 h 41 l 6,-172 c 7,-179 20,-286 39,-321 10,-19 17,-19 144,-13 l 133,7 5,-23 c 3,-13 26,-202 52,-422 38,-331 44,-400 33,-407 -8,-5 -148,-86 -312,-181 -164,-95 -309,-184 -323,-197 -13,-13 -28,-40 -34,-60 -11,-39 -14,-241 -4,-241 4,0 169,34 367,76 198,41 365,73 372,70 7,-2 16,-22 19,-43 4,-21 11,-45 16,-53 9,-13 11,-13 20,0 5,8 12,32 16,53 3,21 12,41 19,43 7,3 174,-29 372,-70 198,-42 363,-76 367,-76 11,0 6,201 -6,242 -6,21 -21,49 -34,61 -12,12 -157,100 -321,195 -164,95 -304,176 -312,181 -11,7 -5,76 33,407 26,220 49,409 52,422 l 5,23 133,-7 c 127,-6 134,-6 144,13 19,35 32,142 39,321 l 6,172 h 41 c 23,0 385,-16 806,-35 421,-19 778,-35 795,-35 25,0 41,-13 93,-75 35,-41 67,-75 72,-75 4,0 -3,42 -16,93 -13,50 -38,155 -55,232 -17,77 -42,163 -54,191 -21,47 -28,53 -71,67 -27,9 -445,140 -929,292 -484,152 -883,279 -887,283 -4,4 -9,304 -11,667 -3,571 -6,673 -21,755 -39,216 -99,407 -179,565 -45,90 -93,165 -107,165 -5,0 -22,-19 -38,-42 z"
       id="path266"
       inkscape:connector-curvature="0" />
  </g>
</svg>
